# xmcd
#
# Track frame offsets: 
#        150
#        20286
#        41418
#        57343
#        77511
#        95579
#        111843
#        132038
#        148143
#        158104
#        178822
#        193291
#        225306
#
# Disc length: 3245 seconds
#
# Revision: 2
# Processed by: cddbd v1.5.2PL0 Copyright (c) Steve Scherf et al.
# Submitted via: ExactAudioCopy v1.1
#
DISCID=a80cab0d
DTITLE=Block, Rory - Blues Walkin' Like A Man
DYEAR=2008
DGENRE=Blues
TTITLE0=My Black Mama
TTITLE1=Downhearted Blues
TTITLE2=Preachin' Blues
TTITLE3=Jinx Blues
TTITLE4=Dry Spell Blues
TTITLE5=Shettland Pony blues
TTITLE6=Death Letter
TTITLE7=Country Farm Blues
TTITLE8=Grinnin' In Your Face
TTITLE9=Low Down Dirty Dog Blues
TTITLE10=Depot Blues
TTITLE11=Goverment Fleet Blues
TTITLE12=I Wanna Go Home On The Morning Train
EXTD=
EXTT0=
EXTT1=
EXTT2=
EXTT3=
EXTT4=
EXTT5=
EXTT6=
EXTT7=
EXTT8=
EXTT9=
EXTT10=
EXTT11=
EXTT12=
PLAYORDER=
